<svg width="1400" height="520" viewBox="0 0 1400 520" fill="none" xmlns="http://www.w3.org/2000/svg" role="img" aria-labelledby="title desc">
  <title id="title">Flagship system board</title>
  <desc id="desc">A dark system board listing flagship work and the production signals behind each project.</desc>
  <defs>
    <linearGradient id="bg" x1="0" y1="0" x2="1400" y2="520">
      <stop stop-color="#070b0d"/>
      <stop offset="1" stop-color="#11100e"/>
    </linearGradient>
    <linearGradient id="wire" x1="80" y1="354" x2="1280" y2="148">
      <stop stop-color="#a9cdd6"/>
      <stop offset="1" stop-color="#d3b77e"/>
    </linearGradient>
    <pattern id="grid" width="70" height="70" patternUnits="userSpaceOnUse">
      <path d="M70 0H0V70" stroke="#d7e9e9" stroke-opacity="0.045"/>
    </pattern>
  </defs>
  <rect width="1400" height="520" rx="24" fill="url(#bg)"/>
  <rect x="1" y="1" width="1398" height="518" rx="23" stroke="#d7e9e9" stroke-opacity="0.13"/>
  <rect width="1400" height="520" rx="24" fill="url(#grid)"/>
  <g font-family="ui-monospace, SFMono-Regular, Menlo, Consolas, monospace">
    <text x="60" y="58" fill="#a9cdd6" font-size="13" letter-spacing="1.5">CH.01 / FLAGSHIP SYSTEMS</text>
    <text x="60" y="86" fill="#f1eee7" font-size="24" font-weight="700">Selected systems I have shipped or built as lab-grade proof.</text>
    <text x="60" y="114" fill="#92a0a5" font-size="13">INDEXERS / GOVERNANCE / AGENTS / DERIVATION / CONTENT PIPELINES</text>
  </g>

  <path d="M108 360 C286 260 400 356 534 250 C664 148 812 324 958 208 C1088 104 1160 214 1292 154" stroke="url(#wire)" stroke-width="2.5" stroke-linecap="round"/>
  <g fill="#a9cdd6">
    <circle cx="108" cy="360" r="5"/>
    <circle cx="328" cy="300" r="5"/>
    <circle cx="534" cy="250" r="5"/>
    <circle cx="746" cy="270" r="5"/>
    <circle cx="958" cy="208" r="5"/>
    <circle cx="1150" cy="190" r="5"/>
    <circle cx="1292" cy="154" r="5"/>
  </g>

  <g font-family="Inter, ui-sans-serif, system-ui, -apple-system, BlinkMacSystemFont, Segoe UI, sans-serif">
    <g transform="translate(60 154)">
      <rect width="270" height="250" fill="#0c1113" fill-opacity="0.82" stroke="#d7e9e9" stroke-opacity="0.16"/>
      <text x="24" y="36" fill="#91a0a6" font-family="ui-monospace, SFMono-Regular, Menlo, Consolas, monospace" font-size="12">01.A / BLOCK EXPLORER</text>
      <text x="24" y="78" fill="#f1eee7" font-size="30" font-weight="740">SEDA Explorer</text>
      <text x="24" y="116" fill="#bbc6c9" font-size="16">Go indexers to Postgres</text>
      <text x="24" y="142" fill="#bbc6c9" font-size="16">to public API to React UI.</text>
      <line x1="24" y1="170" x2="246" y2="170" stroke="#d7e9e9" stroke-opacity="0.12"/>
      <text x="24" y="202" fill="#a9cdd6" font-size="15" font-weight="700">Blocks / tx / validators</text>
      <text x="24" y="228" fill="#d3b77e" font-size="15" font-weight="700">Primary engineer</text>
    </g>
    <g transform="translate(360 154)">
      <rect width="270" height="250" fill="#0c1113" fill-opacity="0.82" stroke="#d7e9e9" stroke-opacity="0.16"/>
      <text x="24" y="36" fill="#91a0a6" font-family="ui-monospace, SFMono-Regular, Menlo, Consolas, monospace" font-size="12">01.B / GOVERNANCE</text>
      <text x="24" y="78" fill="#f1eee7" font-size="30" font-weight="740">SEDA Treasury</text>
      <text x="24" y="116" fill="#bbc6c9" font-size="16">Cosmos SDK group module</text>
      <text x="24" y="142" fill="#bbc6c9" font-size="16">multisig and policy flows.</text>
      <line x1="24" y1="170" x2="246" y2="170" stroke="#d7e9e9" stroke-opacity="0.12"/>
      <text x="24" y="202" fill="#a9cdd6" font-size="15" font-weight="700">Proposal lifecycle</text>
      <text x="24" y="228" fill="#d3b77e" font-size="15" font-weight="700">Wallet signing</text>
    </g>
    <g transform="translate(660 154)">
      <rect width="270" height="250" fill="#0c1113" fill-opacity="0.82" stroke="#d7e9e9" stroke-opacity="0.16"/>
      <text x="24" y="36" fill="#91a0a6" font-family="ui-monospace, SFMono-Regular, Menlo, Consolas, monospace" font-size="12">01.C / AGENT INFRA</text>
      <text x="24" y="78" fill="#f1eee7" font-size="30" font-weight="740">Crux</text>
      <text x="24" y="116" fill="#bbc6c9" font-size="16">Claim graphs, evidence maps,</text>
      <text x="24" y="142" fill="#bbc6c9" font-size="16">eval reports, trace logs.</text>
      <line x1="24" y1="170" x2="246" y2="170" stroke="#d7e9e9" stroke-opacity="0.12"/>
      <text x="24" y="202" fill="#a9cdd6" font-size="15" font-weight="700">Replayable runs</text>
      <text x="24" y="228" fill="#d3b77e" font-size="15" font-weight="700">Decision artifacts</text>
    </g>
    <g transform="translate(960 154)">
      <rect width="380" height="250" fill="#0c1113" fill-opacity="0.82" stroke="#d7e9e9" stroke-opacity="0.16"/>
      <text x="24" y="36" fill="#91a0a6" font-family="ui-monospace, SFMono-Regular, Menlo, Consolas, monospace" font-size="12">01.D / FULLSTACK PRODUCTS</text>
      <text x="24" y="78" fill="#f1eee7" font-size="30" font-weight="740">Journal / Parallax / ClipInsight</text>
      <text x="24" y="116" fill="#bbc6c9" font-size="16">Deterministic analytics, grounded AI coaching,</text>
      <text x="24" y="142" fill="#bbc6c9" font-size="16">video insight pipelines, billing, auth, previews.</text>
      <line x1="24" y1="170" x2="356" y2="170" stroke="#d7e9e9" stroke-opacity="0.12"/>
      <text x="24" y="202" fill="#a9cdd6" font-size="15" font-weight="700">React 19 / TanStack / Next</text>
      <text x="24" y="228" fill="#d3b77e" font-size="15" font-weight="700">Claude / Gemini / Inngest</text>
    </g>
  </g>
</svg>
